<mxfile host="app.diagrams.net" modified="2023-04-03T04:49:21.855Z" agent="Mozilla/5.0 (Windows NT 10.0; Win64; x64) AppleWebKit/537.36 (KHTML, like Gecko) Chrome/109.0.0.0 Safari/537.36" etag="v9LUS-OL9UyA5VlW7ynU" version="21.1.2" type="device">
  <diagram id="C5RBs43oDa-KdzZeNtuy" name="Page-1">
    <mxGraphModel dx="880" dy="1653" grid="1" gridSize="10" guides="1" tooltips="1" connect="1" arrows="1" fold="1" page="1" pageScale="1" pageWidth="827" pageHeight="1169" math="0" shadow="0">
      <root>
        <mxCell id="WIyWlLk6GJQsqaUBKTNV-0" />
        <mxCell id="WIyWlLk6GJQsqaUBKTNV-1" parent="WIyWlLk6GJQsqaUBKTNV-0" />
        <mxCell id="itrpOs4cDgJBpynTybJy-42" value="" style="edgeStyle=orthogonalEdgeStyle;rounded=0;orthogonalLoop=1;jettySize=auto;html=1;" parent="WIyWlLk6GJQsqaUBKTNV-1" source="itrpOs4cDgJBpynTybJy-0" target="itrpOs4cDgJBpynTybJy-32" edge="1">
          <mxGeometry relative="1" as="geometry" />
        </mxCell>
        <mxCell id="itrpOs4cDgJBpynTybJy-0" value="&lt;br&gt;&lt;span style=&quot;box-sizing: border-box; min-width: 0px; min-height: 0px; flex-shrink: 0; font-family: consolas, &amp;quot;lucida console&amp;quot;, &amp;quot;courier new&amp;quot;, monospace; font-size: 12px; font-style: normal; font-variant-ligatures: normal; font-variant-caps: normal; font-weight: 400; letter-spacing: normal; orphans: 2; text-align: left; text-indent: 0px; text-transform: none; widows: 2; word-spacing: 0px; -webkit-text-stroke-width: 0px; text-decoration-thickness: initial; text-decoration-style: initial; text-decoration-color: initial;&quot; title=&quot;[[Prototype]]&quot; class=&quot;name synthetic-property&quot;&gt;Prototype&lt;br&gt;&lt;/span&gt;&lt;span style=&quot;box-sizing: border-box; min-width: 0px; min-height: 0px; flex-shrink: 0; font-family: consolas, &amp;quot;lucida console&amp;quot;, &amp;quot;courier new&amp;quot;, monospace; font-size: 12px; font-style: normal; font-variant-ligatures: normal; font-variant-caps: normal; font-weight: 400; letter-spacing: normal; orphans: 2; text-align: left; text-indent: 0px; text-transform: none; widows: 2; word-spacing: 0px; -webkit-text-stroke-width: 0px; text-decoration-thickness: initial; text-decoration-style: initial; text-decoration-color: initial;&quot; class=&quot;separator&quot;&gt;&amp;nbsp;&lt;/span&gt;&lt;span style=&quot;box-sizing: border-box; min-width: 0px; min-height: 0px; font-family: consolas, &amp;quot;lucida console&amp;quot;, &amp;quot;courier new&amp;quot;, monospace; font-size: 12px; font-style: normal; font-variant-ligatures: normal; font-variant-caps: normal; font-weight: 400; letter-spacing: normal; orphans: 2; text-align: left; text-indent: 0px; text-transform: none; widows: 2; word-spacing: 0px; -webkit-text-stroke-width: 0px; text-decoration-thickness: initial; text-decoration-style: initial; text-decoration-color: initial;&quot; title=&quot;Object&quot; class=&quot;object-value-object value&quot;&gt;Object&lt;/span&gt;" style="rounded=1;whiteSpace=wrap;html=1;glass=0;strokeWidth=1;shadow=0;fillColor=#f8cecc;strokeColor=#b85450;" parent="WIyWlLk6GJQsqaUBKTNV-1" vertex="1">
          <mxGeometry x="310" y="20" width="90" height="80" as="geometry" />
        </mxCell>
        <mxCell id="itrpOs4cDgJBpynTybJy-45" value="" style="edgeStyle=orthogonalEdgeStyle;rounded=0;orthogonalLoop=1;jettySize=auto;html=1;" parent="WIyWlLk6GJQsqaUBKTNV-1" source="itrpOs4cDgJBpynTybJy-3" target="itrpOs4cDgJBpynTybJy-0" edge="1">
          <mxGeometry relative="1" as="geometry">
            <Array as="points">
              <mxPoint x="355" y="150" />
              <mxPoint x="355" y="150" />
            </Array>
          </mxGeometry>
        </mxCell>
        <mxCell id="itrpOs4cDgJBpynTybJy-3" value="&lt;div style=&quot;text-align: left;&quot;&gt;&lt;span style=&quot;background-color: initial;&quot;&gt;Prototype&lt;/span&gt;&lt;span style=&quot;background-color: initial;&quot;&gt;&amp;nbsp;&lt;/span&gt;&lt;/div&gt;&lt;div style=&quot;text-align: left;&quot;&gt;&lt;span style=&quot;background-color: initial;&quot;&gt;&lt;font face=&quot;consolas, lucida console, courier new, monospace&quot; color=&quot;#202124&quot;&gt;&amp;nbsp; &amp;nbsp;String&lt;/font&gt;&lt;/span&gt;&lt;/div&gt;" style="ellipse;whiteSpace=wrap;html=1;rounded=1;glass=0;strokeWidth=1;shadow=0;fillColor=#fff2cc;strokeColor=#d6b656;" parent="WIyWlLk6GJQsqaUBKTNV-1" vertex="1">
          <mxGeometry x="320" y="160" width="80" height="80" as="geometry" />
        </mxCell>
        <mxCell id="itrpOs4cDgJBpynTybJy-7" value="Prototype&lt;br&gt;&lt;div style=&quot;text-align: center;&quot;&gt;&lt;span style=&quot;color: rgb(32, 33, 36); font-family: consolas, &amp;quot;lucida console&amp;quot;, &amp;quot;courier new&amp;quot;, monospace; text-align: left; background-color: initial;&quot;&gt;Array&lt;/span&gt;&lt;/div&gt;" style="ellipse;whiteSpace=wrap;html=1;rounded=1;glass=0;strokeWidth=1;shadow=0;fillColor=#fff2cc;strokeColor=#d6b656;" parent="WIyWlLk6GJQsqaUBKTNV-1" vertex="1">
          <mxGeometry x="610" y="160" width="80" height="80" as="geometry" />
        </mxCell>
        <mxCell id="itrpOs4cDgJBpynTybJy-80" value="" style="edgeStyle=orthogonalEdgeStyle;rounded=0;orthogonalLoop=1;jettySize=auto;html=1;" parent="WIyWlLk6GJQsqaUBKTNV-1" source="itrpOs4cDgJBpynTybJy-11" target="itrpOs4cDgJBpynTybJy-7" edge="1">
          <mxGeometry relative="1" as="geometry" />
        </mxCell>
        <mxCell id="itrpOs4cDgJBpynTybJy-11" value="const arr = [1, 2, 3];" style="shape=trapezoid;perimeter=trapezoidPerimeter;whiteSpace=wrap;html=1;fixedSize=1;rounded=1;glass=0;strokeWidth=1;shadow=0;" parent="WIyWlLk6GJQsqaUBKTNV-1" vertex="1">
          <mxGeometry x="610" y="300" width="135" height="60" as="geometry" />
        </mxCell>
        <mxCell id="itrpOs4cDgJBpynTybJy-67" value="" style="edgeStyle=orthogonalEdgeStyle;rounded=0;orthogonalLoop=1;jettySize=auto;html=1;" parent="WIyWlLk6GJQsqaUBKTNV-1" source="itrpOs4cDgJBpynTybJy-20" target="itrpOs4cDgJBpynTybJy-0" edge="1">
          <mxGeometry relative="1" as="geometry">
            <mxPoint x="480" as="targetPoint" />
            <Array as="points">
              <mxPoint x="530" y="-10" />
              <mxPoint x="355" y="-10" />
            </Array>
          </mxGeometry>
        </mxCell>
        <mxCell id="itrpOs4cDgJBpynTybJy-20" value="&lt;div&gt;const human = {&lt;/div&gt;&lt;div&gt;isHuman: true,&lt;/div&gt;&lt;div&gt;}&lt;/div&gt;" style="shape=trapezoid;perimeter=trapezoidPerimeter;whiteSpace=wrap;html=1;fixedSize=1;rounded=1;glass=0;strokeWidth=1;shadow=0;" parent="WIyWlLk6GJQsqaUBKTNV-1" vertex="1">
          <mxGeometry x="470" y="-100" width="120" height="60" as="geometry" />
        </mxCell>
        <mxCell id="itrpOs4cDgJBpynTybJy-46" value="" style="edgeStyle=orthogonalEdgeStyle;rounded=0;orthogonalLoop=1;jettySize=auto;html=1;" parent="WIyWlLk6GJQsqaUBKTNV-1" source="itrpOs4cDgJBpynTybJy-22" target="itrpOs4cDgJBpynTybJy-3" edge="1">
          <mxGeometry relative="1" as="geometry" />
        </mxCell>
        <mxCell id="itrpOs4cDgJBpynTybJy-22" value="const str = &quot;&quot;" style="shape=trapezoid;perimeter=trapezoidPerimeter;whiteSpace=wrap;html=1;fixedSize=1;rounded=1;glass=0;strokeWidth=1;shadow=0;" parent="WIyWlLk6GJQsqaUBKTNV-1" vertex="1">
          <mxGeometry x="300" y="300" width="120" height="60" as="geometry" />
        </mxCell>
        <mxCell id="itrpOs4cDgJBpynTybJy-41" value="" style="edgeStyle=orthogonalEdgeStyle;rounded=0;orthogonalLoop=1;jettySize=auto;html=1;" parent="WIyWlLk6GJQsqaUBKTNV-1" source="itrpOs4cDgJBpynTybJy-24" target="itrpOs4cDgJBpynTybJy-20" edge="1">
          <mxGeometry relative="1" as="geometry" />
        </mxCell>
        <mxCell id="itrpOs4cDgJBpynTybJy-24" value="&lt;div&gt;const user = {&lt;/div&gt;&lt;div&gt;name: &quot;Your name&quot;,&lt;/div&gt;&lt;div&gt;__proto__: human,&lt;/div&gt;&lt;div&gt;}&lt;/div&gt;" style="shape=trapezoid;perimeter=trapezoidPerimeter;whiteSpace=wrap;html=1;fixedSize=1;rounded=1;glass=0;strokeWidth=1;shadow=0;" parent="WIyWlLk6GJQsqaUBKTNV-1" vertex="1">
          <mxGeometry x="650" y="-100" width="140" height="60" as="geometry" />
        </mxCell>
        <mxCell id="itrpOs4cDgJBpynTybJy-38" value="" style="edgeStyle=orthogonalEdgeStyle;rounded=0;orthogonalLoop=1;jettySize=auto;html=1;" parent="WIyWlLk6GJQsqaUBKTNV-1" source="itrpOs4cDgJBpynTybJy-29" target="itrpOs4cDgJBpynTybJy-0" edge="1">
          <mxGeometry relative="1" as="geometry" />
        </mxCell>
        <mxCell id="itrpOs4cDgJBpynTybJy-29" value="&lt;div&gt;const car = {&lt;/div&gt;&lt;div&gt;hasEngine: true,&lt;/div&gt;&lt;div&gt;};&lt;/div&gt;" style="shape=trapezoid;perimeter=trapezoidPerimeter;whiteSpace=wrap;html=1;fixedSize=1;rounded=1;glass=0;strokeWidth=1;shadow=0;" parent="WIyWlLk6GJQsqaUBKTNV-1" vertex="1">
          <mxGeometry x="200" y="-100" width="120" height="60" as="geometry" />
        </mxCell>
        <mxCell id="itrpOs4cDgJBpynTybJy-37" value="" style="edgeStyle=orthogonalEdgeStyle;rounded=0;orthogonalLoop=1;jettySize=auto;html=1;" parent="WIyWlLk6GJQsqaUBKTNV-1" source="itrpOs4cDgJBpynTybJy-30" target="itrpOs4cDgJBpynTybJy-29" edge="1">
          <mxGeometry relative="1" as="geometry" />
        </mxCell>
        <mxCell id="itrpOs4cDgJBpynTybJy-30" value="&lt;div&gt;const mercedes = {&lt;/div&gt;&lt;div&gt;name: &quot;mercedes&quot;,&lt;/div&gt;&lt;div&gt;__proto__: car,&lt;/div&gt;&lt;div&gt;}&lt;/div&gt;" style="shape=trapezoid;perimeter=trapezoidPerimeter;whiteSpace=wrap;html=1;fixedSize=1;rounded=1;glass=0;strokeWidth=1;shadow=0;" parent="WIyWlLk6GJQsqaUBKTNV-1" vertex="1">
          <mxGeometry x="30" y="-100" width="144" height="60" as="geometry" />
        </mxCell>
        <mxCell id="itrpOs4cDgJBpynTybJy-51" value="" style="edgeStyle=orthogonalEdgeStyle;rounded=0;orthogonalLoop=1;jettySize=auto;html=1;entryX=1;entryY=0.5;entryDx=0;entryDy=0;exitX=0;exitY=0.5;exitDx=0;exitDy=0;" parent="WIyWlLk6GJQsqaUBKTNV-1" source="itrpOs4cDgJBpynTybJy-52" target="itrpOs4cDgJBpynTybJy-32" edge="1">
          <mxGeometry relative="1" as="geometry">
            <mxPoint x="680" y="60" as="sourcePoint" />
            <mxPoint x="700" y="60" as="targetPoint" />
          </mxGeometry>
        </mxCell>
        <mxCell id="itrpOs4cDgJBpynTybJy-32" value="null" style="ellipse;whiteSpace=wrap;html=1;fillColor=#333333;opacity=80;strokeWidth=0;perimeterSpacing=0;fontSize=21;" parent="WIyWlLk6GJQsqaUBKTNV-1" vertex="1">
          <mxGeometry x="490" y="20" width="120" height="80" as="geometry" />
        </mxCell>
        <mxCell id="itrpOs4cDgJBpynTybJy-52" value="const bmw = Object.create(null)" style="shape=trapezoid;perimeter=trapezoidPerimeter;whiteSpace=wrap;html=1;fixedSize=1;rounded=1;glass=0;strokeWidth=1;shadow=0;" parent="WIyWlLk6GJQsqaUBKTNV-1" vertex="1">
          <mxGeometry x="687" y="-10" width="140" height="60" as="geometry" />
        </mxCell>
        <mxCell id="itrpOs4cDgJBpynTybJy-53" value="Prototype&lt;br&gt;Function" style="ellipse;whiteSpace=wrap;html=1;aspect=fixed;fillColor=#fff2cc;strokeColor=#d6b656;" parent="WIyWlLk6GJQsqaUBKTNV-1" vertex="1">
          <mxGeometry x="460" y="160" width="80" height="80" as="geometry" />
        </mxCell>
        <mxCell id="itrpOs4cDgJBpynTybJy-55" value="" style="endArrow=classic;html=1;rounded=0;exitX=0;exitY=0;exitDx=0;exitDy=0;" parent="WIyWlLk6GJQsqaUBKTNV-1" source="itrpOs4cDgJBpynTybJy-53" edge="1">
          <mxGeometry width="50" height="50" relative="1" as="geometry">
            <mxPoint x="390" y="130" as="sourcePoint" />
            <mxPoint x="390" y="100" as="targetPoint" />
          </mxGeometry>
        </mxCell>
        <mxCell id="itrpOs4cDgJBpynTybJy-58" value="&lt;div&gt;function fn() {&lt;/div&gt;&lt;div&gt;console.log(&quot;hello, world!&quot;);&lt;/div&gt;&lt;div&gt;}&lt;/div&gt;" style="shape=trapezoid;perimeter=trapezoidPerimeter;whiteSpace=wrap;html=1;fixedSize=1;rounded=1;glass=0;strokeWidth=1;shadow=0;" parent="WIyWlLk6GJQsqaUBKTNV-1" vertex="1">
          <mxGeometry x="450" y="300" width="140" height="60" as="geometry" />
        </mxCell>
        <mxCell id="itrpOs4cDgJBpynTybJy-60" value="" style="endArrow=classic;html=1;rounded=0;exitX=0.357;exitY=0.033;exitDx=0;exitDy=0;entryX=0.5;entryY=1;entryDx=0;entryDy=0;exitPerimeter=0;" parent="WIyWlLk6GJQsqaUBKTNV-1" source="itrpOs4cDgJBpynTybJy-58" target="itrpOs4cDgJBpynTybJy-53" edge="1">
          <mxGeometry width="50" height="50" relative="1" as="geometry">
            <mxPoint x="610" y="192" as="sourcePoint" />
            <mxPoint x="550" y="230" as="targetPoint" />
          </mxGeometry>
        </mxCell>
        <mxCell id="itrpOs4cDgJBpynTybJy-62" value="" style="edgeStyle=orthogonalEdgeStyle;rounded=0;orthogonalLoop=1;jettySize=auto;html=1;" parent="WIyWlLk6GJQsqaUBKTNV-1" source="itrpOs4cDgJBpynTybJy-61" target="itrpOs4cDgJBpynTybJy-32" edge="1">
          <mxGeometry relative="1" as="geometry" />
        </mxCell>
        <mxCell id="itrpOs4cDgJBpynTybJy-61" value="const bmw = Object.create(null)" style="shape=trapezoid;perimeter=trapezoidPerimeter;whiteSpace=wrap;html=1;fixedSize=1;rounded=1;glass=0;strokeWidth=1;shadow=0;" parent="WIyWlLk6GJQsqaUBKTNV-1" vertex="1">
          <mxGeometry x="687" y="70" width="140" height="60" as="geometry" />
        </mxCell>
        <mxCell id="itrpOs4cDgJBpynTybJy-63" value="&lt;div style=&quot;border-color: var(--border-color); text-align: left;&quot;&gt;Prototype&lt;span style=&quot;border-color: var(--border-color); background-color: initial;&quot;&gt;&amp;nbsp;&lt;/span&gt;&lt;/div&gt;&lt;div&gt;Number&lt;/div&gt;" style="ellipse;whiteSpace=wrap;html=1;aspect=fixed;fillColor=#fff2cc;strokeColor=#d6b656;" parent="WIyWlLk6GJQsqaUBKTNV-1" vertex="1">
          <mxGeometry x="190" y="160" width="80" height="80" as="geometry" />
        </mxCell>
        <mxCell id="itrpOs4cDgJBpynTybJy-66" value="" style="edgeStyle=orthogonalEdgeStyle;rounded=0;orthogonalLoop=1;jettySize=auto;html=1;" parent="WIyWlLk6GJQsqaUBKTNV-1" source="itrpOs4cDgJBpynTybJy-47" target="itrpOs4cDgJBpynTybJy-0" edge="1">
          <mxGeometry relative="1" as="geometry" />
        </mxCell>
        <mxCell id="itrpOs4cDgJBpynTybJy-47" value="const emptyObj = {};" style="shape=trapezoid;perimeter=trapezoidPerimeter;whiteSpace=wrap;html=1;fixedSize=1;rounded=1;glass=0;strokeWidth=1;shadow=0;" parent="WIyWlLk6GJQsqaUBKTNV-1" vertex="1">
          <mxGeometry x="325" y="-100" width="135" height="60" as="geometry" />
        </mxCell>
        <mxCell id="itrpOs4cDgJBpynTybJy-68" value="&lt;div style=&quot;border-color: var(--border-color); text-align: left;&quot;&gt;Prototype&lt;span style=&quot;border-color: var(--border-color); background-color: initial;&quot;&gt;&amp;nbsp;&lt;/span&gt;&lt;/div&gt;&lt;div&gt;&lt;span style=&quot;border-color: var(--border-color); background-color: initial;&quot;&gt;Boolean&lt;/span&gt;&lt;/div&gt;" style="ellipse;whiteSpace=wrap;html=1;aspect=fixed;fillColor=#fff2cc;strokeColor=#d6b656;" parent="WIyWlLk6GJQsqaUBKTNV-1" vertex="1">
          <mxGeometry x="60" y="160" width="80" height="80" as="geometry" />
        </mxCell>
        <mxCell id="itrpOs4cDgJBpynTybJy-69" value="" style="endArrow=classic;html=1;rounded=0;exitX=0;exitY=0;exitDx=0;exitDy=0;entryX=1;entryY=0.75;entryDx=0;entryDy=0;" parent="WIyWlLk6GJQsqaUBKTNV-1" source="itrpOs4cDgJBpynTybJy-7" target="itrpOs4cDgJBpynTybJy-0" edge="1">
          <mxGeometry width="50" height="50" relative="1" as="geometry">
            <mxPoint x="482" y="182" as="sourcePoint" />
            <mxPoint x="450" y="90" as="targetPoint" />
          </mxGeometry>
        </mxCell>
        <mxCell id="itrpOs4cDgJBpynTybJy-70" value="" style="endArrow=classic;html=1;rounded=0;exitX=1;exitY=0;exitDx=0;exitDy=0;" parent="WIyWlLk6GJQsqaUBKTNV-1" source="itrpOs4cDgJBpynTybJy-63" edge="1">
          <mxGeometry width="50" height="50" relative="1" as="geometry">
            <mxPoint x="250" y="170" as="sourcePoint" />
            <mxPoint x="310" y="100" as="targetPoint" />
          </mxGeometry>
        </mxCell>
        <mxCell id="itrpOs4cDgJBpynTybJy-71" value="" style="endArrow=classic;html=1;rounded=0;entryX=-0.044;entryY=0.625;entryDx=0;entryDy=0;entryPerimeter=0;" parent="WIyWlLk6GJQsqaUBKTNV-1" target="itrpOs4cDgJBpynTybJy-0" edge="1">
          <mxGeometry width="50" height="50" relative="1" as="geometry">
            <mxPoint x="130" y="170" as="sourcePoint" />
            <mxPoint x="180" y="120" as="targetPoint" />
          </mxGeometry>
        </mxCell>
        <mxCell id="itrpOs4cDgJBpynTybJy-79" value="" style="edgeStyle=orthogonalEdgeStyle;rounded=0;orthogonalLoop=1;jettySize=auto;html=1;" parent="WIyWlLk6GJQsqaUBKTNV-1" source="itrpOs4cDgJBpynTybJy-76" target="itrpOs4cDgJBpynTybJy-63" edge="1">
          <mxGeometry relative="1" as="geometry" />
        </mxCell>
        <mxCell id="itrpOs4cDgJBpynTybJy-76" value="const num = 12;" style="shape=trapezoid;perimeter=trapezoidPerimeter;whiteSpace=wrap;html=1;fixedSize=1;rounded=1;glass=0;strokeWidth=1;shadow=0;" parent="WIyWlLk6GJQsqaUBKTNV-1" vertex="1">
          <mxGeometry x="170" y="300" width="120" height="60" as="geometry" />
        </mxCell>
        <mxCell id="itrpOs4cDgJBpynTybJy-78" value="" style="edgeStyle=orthogonalEdgeStyle;rounded=0;orthogonalLoop=1;jettySize=auto;html=1;" parent="WIyWlLk6GJQsqaUBKTNV-1" source="itrpOs4cDgJBpynTybJy-77" target="itrpOs4cDgJBpynTybJy-68" edge="1">
          <mxGeometry relative="1" as="geometry" />
        </mxCell>
        <mxCell id="itrpOs4cDgJBpynTybJy-77" value="const isAuth = false;" style="shape=trapezoid;perimeter=trapezoidPerimeter;whiteSpace=wrap;html=1;fixedSize=1;rounded=1;glass=0;strokeWidth=1;shadow=0;" parent="WIyWlLk6GJQsqaUBKTNV-1" vertex="1">
          <mxGeometry x="10" y="300" width="140" height="60" as="geometry" />
        </mxCell>
      </root>
    </mxGraphModel>
  </diagram>
</mxfile>
